<?xml version="1.0" encoding="iso-8859-1"?>
<!-- Generator: Adobe Illustrator 18.1.1, SVG Export Plug-In . SVG Version: 6.00 Build 0)  -->
<svg version="1.1" id="Capa_1" xmlns="http://www.w3.org/2000/svg" xmlns:xlink="http://www.w3.org/1999/xlink" x="0px" y="0px"
	 viewBox="0 0 208.834 208.834" style="enable-background:new 0 0 208.834 208.834;" xml:space="preserve">
<g>
	<g>
		<path style="fill:#010002;" d="M150.971,0H57.864c-7.757,0-14.106,6.337-14.106,14.1v180.635c0,7.751,6.349,14.1,14.106,14.1
			h93.107c7.757,0,14.106-6.349,14.106-14.1V14.106C165.076,6.343,158.728,0,150.971,0z M83.694,198.679h-11.91
			c-2.184,0-3.968-1.784-3.968-3.974s1.784-3.974,3.968-3.974h11.91c2.178,0,3.962,1.784,3.962,3.974S85.89,198.679,83.694,198.679z
			 M104.417,201.788c-3.89,0-7.053-3.156-7.053-7.053c0-3.902,3.156-7.053,7.053-7.053s7.053,3.145,7.053,7.053
			C111.47,198.631,108.308,201.788,104.417,201.788z M137.05,198.679h-11.898c-2.19,0-3.974-1.784-3.974-3.974
			s1.784-3.974,3.974-3.974h11.898c2.19,0,3.968,1.784,3.968,3.974S139.24,198.679,137.05,198.679z M155.261,182.735H53.574V9.219
			h101.693v173.517H155.261z"/>
		<g>
			<path style="fill:#010002;" d="M67.56,42.329v73.649h73.715V42.329H67.56z M137.856,45.748v66.59l-1.247-1.432
				c-0.782-0.806-1.701-1.492-2.792-2.041c-5.376-2.757-10.973-5.054-16.6-7.22c-0.412-0.149-0.919-0.477-1.11-0.853
				c-0.453-1.014-0.77-2.106-1.11-3.168c-0.197-0.674-0.388-1.331-1.128-1.641c-0.203-0.095-0.382-0.477-0.382-0.722
				c0.048-2.488-0.525-5.096,1.295-7.244c0.078-0.078,0.095-0.167,0.125-0.251c0.985-2.154,1.164-4.636,2.554-6.665
				c0.036-0.054,0.048-0.119,0.048-0.173c0.161-1.528,0.334-3.085,0.465-4.606c0-0.191-0.155-0.525-0.334-0.591
				c-0.758-0.28-0.704-0.871-0.704-1.492c0-3.019,0-6.027,0-9.034c-0.012-1.748-0.531-3.312-1.85-4.499
				c-1.51-1.354-3.049-2.655-4.6-3.968c-0.746-0.632-0.817-1.122-0.125-1.814c0.316-0.316,0.71-0.525,1.068-0.794
				c-0.078-0.119-0.149-0.227-0.221-0.352c-0.465,0-0.943-0.072-1.396,0.012c-1.707,0.28-3.419,0.513-5.102,0.907
				c-3.204,0.758-6.319,1.766-8.914,3.89c-1.802,1.48-3.204,3.192-3.377,5.603c-0.095,1.271-0.095,2.542-0.095,3.813
				c-0.012,2.076,0,4.135-0.036,6.188c-0.006,0.358-0.197,0.901-0.418,0.979c-0.853,0.269-0.871,0.806-0.746,1.492
				c0.072,0.489,0.012,0.979,0.119,1.456c0.298,1.295,0.597,2.578,0.967,3.849c0.274,0.955,0.817,1.85,0.955,2.816
				c0.31,1.915,1.02,3.598,2.321,5.054c0.215,0.245,0.382,0.638,0.364,0.955c-0.113,1.492-0.257,2.96-0.453,4.439
				c-0.036,0.274-0.352,0.71-0.585,0.77c-0.991,0.197-1.14,0.955-1.372,1.718c-0.316,1.014-0.638,2.029-1.026,3.007
				c-0.131,0.298-0.43,0.621-0.734,0.758c-1.748,0.764-3.532,1.462-5.293,2.202c-1.88,0.782-3.783,1.539-5.603,2.405
				c-1.886,0.895-3.717,1.909-5.573,2.9c-1.092,0.597-2.106,1.235-2.96,2.029l-1.247,1.372V45.748H137.856z"/>
			<g>
				<g>
					<path style="fill:#010002;" d="M143.202,143.205H65.633c-1.235,0-2.238-1.002-2.238-2.238c0-1.235,1.002-2.238,2.238-2.238
						h77.569c1.235,0,2.238,1.002,2.238,2.238C145.439,142.202,144.437,143.205,143.202,143.205z"/>
				</g>
				<g>
					<path style="fill:#010002;" d="M143.202,131.271H65.633c-1.235,0-2.238-1.002-2.238-2.238c0-1.235,1.002-2.238,2.238-2.238
						h77.569c1.235,0,2.238,1.002,2.238,2.238C145.439,130.269,144.437,131.271,143.202,131.271z"/>
				</g>
				<g>
					<path style="fill:#010002;" d="M143.202,155.139H65.633c-1.235,0-2.238-1.002-2.238-2.238c0-1.235,1.002-2.238,2.238-2.238
						h77.569c1.235,0,2.238,1.002,2.238,2.238C145.439,154.136,144.437,155.139,143.202,155.139z"/>
				</g>
			</g>
		</g>
	</g>
</g>
<g>
</g>
<g>
</g>
<g>
</g>
<g>
</g>
<g>
</g>
<g>
</g>
<g>
</g>
<g>
</g>
<g>
</g>
<g>
</g>
<g>
</g>
<g>
</g>
<g>
</g>
<g>
</g>
<g>
</g>
</svg>
