<?xml version="1.0" encoding="iso-8859-1"?>
<!-- Generator: Adobe Illustrator 19.0.0, SVG Export Plug-In . SVG Version: 6.00 Build 0)  -->
<svg version="1.1" id="Layer_1" xmlns="http://www.w3.org/2000/svg" xmlns:xlink="http://www.w3.org/1999/xlink" x="0px" y="0px"
	 viewBox="0 0 511.999 511.999" style="enable-background:new 0 0 511.999 511.999;" xml:space="preserve">
<g>
	<g>
		<path d="M501.844,359.148H398.722l-69.047-29.292c-0.99-0.421-2.054-0.637-3.131-0.637H200.415
			c-22.103,0-40.083,17.981-40.083,40.083v17.102c0,3.931,0.569,7.733,1.629,11.326l-98.692-42.678
			c-20.019-8.657-42.948,0.033-52.204,19.779l-4.918,10.49c-4.622,9.861-5.059,20.905-1.232,31.101
			c3.828,10.196,11.426,18.226,21.398,22.608l72.537,31.884c4.052,1.784,8.783-0.06,10.565-4.114
			c1.782-4.053-0.061-8.783-4.114-10.565l-72.536-31.884c-5.983-2.629-10.541-7.447-12.84-13.564
			c-2.295-6.117-2.033-12.744,0.74-18.661l4.918-10.49c5.553-11.849,19.31-17.06,31.323-11.868l129.639,56.06
			c1.004,0.434,2.088,0.658,3.182,0.658h10.689H311.58c4.428,0,8.017-3.588,8.017-8.017c0-4.428-3.588-8.017-8.017-8.017H200.415
			c-13.261,0-24.05-10.789-24.05-24.05v-17.102c0-13.261,10.789-24.05,24.05-24.05h124.499l69.047,29.292
			c0.99,0.421,2.054,0.637,3.131,0.637h96.735v76.38l-107.538,43.812c-0.966,0.393-1.984,0.593-3.026,0.593H197.372
			c-1.118,0-2.204-0.228-3.226-0.678l-63.188-27.775c-4.055-1.781-8.783,0.061-10.566,4.113c-1.782,4.053,0.061,8.784,4.113,10.566
			l63.189,27.775c3.069,1.349,6.325,2.032,9.678,2.032h185.891c3.124,0,6.176-0.599,9.074-1.778l112.532-45.847
			c3.018-1.229,4.992-4.164,4.992-7.424v-89.787C509.861,362.737,506.272,359.148,501.844,359.148z"/>
	</g>
</g>
<g>
	<g>
		<path d="M346.137,194.049c-1.157-4.274-5.556-6.801-9.832-5.644c-4.273,1.156-6.8,5.558-5.644,9.832
			c1.879,6.945,2.831,14.152,2.831,21.421c0,45.089-36.681,81.77-81.77,81.77s-81.77-36.681-81.77-81.77
			c0-45.089,36.681-81.77,81.77-81.77c26.718,0,51.809,13.102,67.118,35.05c2.532,3.63,7.528,4.525,11.161,1.988
			c3.631-2.533,4.521-7.53,1.988-11.161c-18.305-26.243-48.312-41.91-80.267-41.91c-53.929,0-97.804,43.875-97.804,97.804
			c0,53.929,43.875,97.804,97.804,97.804s97.804-43.875,97.804-97.804C349.527,210.975,348.387,202.359,346.137,194.049z"/>
	</g>
</g>
<g>
	<g>
		<path d="M281.652,190.263c4.428,0,8.017-3.588,8.017-8.017c0-4.428-3.588-8.017-8.017-8.017H259.74v-9.086
			c0-4.428-3.588-8.017-8.017-8.017c-4.428,0-8.017,3.588-8.017,8.017v9.086h-6.948c-10.314,0-18.706,8.392-18.706,18.706v17.102
			c0,10.314,8.392,18.706,18.706,18.706h6.948v22.447h-21.912c-4.428,0-8.017,3.588-8.017,8.017c0,4.428,3.588,8.017,8.017,8.017
			h21.912v9.086c0,4.428,3.588,8.017,8.017,8.017c4.428,0,8.017-3.588,8.017-8.017v-9.086h6.948
			c10.314,0,18.706-8.392,18.706-18.706v-17.102c0-10.314-8.392-18.706-18.706-18.706h-6.948v-22.447H281.652z M243.706,212.71
			h-6.948c-1.474,0-2.672-1.198-2.672-2.672v-17.102c0-1.474,1.198-2.672,2.672-2.672h6.948V212.71z M266.687,228.743
			c1.474,0,2.672,1.198,2.672,2.672v17.102c0,1.474-1.198,2.672-2.672,2.672h-6.948v-22.447H266.687z"/>
	</g>
</g>
<g>
	<g>
		<path d="M502.901,250.191c-5.443-0.724-19.158-3.753-28.951-16.239c-6.959-8.877-8.628-18.505-9.004-23.453
			c-0.317-4.179-3.802-7.41-7.994-7.41s-7.677,3.229-7.994,7.41c-0.376,4.949-2.046,14.577-9.004,23.453
			c-9.793,12.486-23.509,15.516-28.951,16.239c-3.985,0.529-6.962,3.927-6.962,7.947c0,4.02,2.977,7.417,6.962,7.947
			c5.443,0.724,19.158,3.753,28.951,16.239c6.958,8.877,8.628,18.505,9.004,23.453c0.317,4.179,3.802,7.41,7.994,7.41
			s7.677-3.229,7.994-7.41c0.376-4.949,2.046-14.576,9.003-23.452c9.794-12.488,23.509-15.517,28.952-16.24
			c3.985-0.529,6.962-3.927,6.962-7.947C509.863,254.118,506.886,250.721,502.901,250.191z M461.331,272.432
			c-1.667,2.127-3.119,4.278-4.38,6.421c-1.262-2.144-2.713-4.295-4.381-6.422c-5.031-6.415-10.793-11.007-16.419-14.293
			c5.628-3.286,11.388-7.878,16.419-14.293c1.669-2.128,3.12-4.279,4.381-6.422c1.262,2.144,2.713,4.295,4.381,6.422
			c5.031,6.416,10.793,11.008,16.419,14.293C472.123,261.424,466.362,266.017,461.331,272.432z"/>
	</g>
</g>
<g>
	<g>
		<path d="M301.947,47.101c-5.443-0.724-19.158-3.753-28.951-16.239c-6.958-8.877-8.628-18.505-9.004-23.453
			c-0.316-4.18-3.801-7.41-7.993-7.41s-7.677,3.229-7.994,7.41c-0.376,4.949-2.046,14.577-9.004,23.453
			c-9.793,12.486-23.509,15.516-28.951,16.239c-3.984,0.53-6.961,3.927-6.961,7.947c0,4.02,2.977,7.417,6.962,7.947
			c5.443,0.724,19.158,3.753,28.951,16.239c6.958,8.877,8.628,18.505,9.004,23.453c0.317,4.179,3.802,7.41,7.994,7.41
			c4.192,0,7.677-3.229,7.994-7.41c0.376-4.949,2.046-14.576,9.003-23.452c9.794-12.488,23.509-15.517,28.952-16.24
			c3.983-0.53,6.96-3.927,6.96-7.947C308.909,51.028,305.932,47.631,301.947,47.101z M260.379,69.342
			c-1.667,2.127-3.119,4.278-4.38,6.421c-1.262-2.144-2.713-4.295-4.381-6.422c-5.031-6.415-10.793-11.007-16.419-14.293
			c5.628-3.286,11.388-7.878,16.419-14.293c1.669-2.128,3.12-4.279,4.381-6.422c1.262,2.144,2.713,4.295,4.381,6.422
			c5.031,6.416,10.793,11.008,16.419,14.293C271.171,58.334,265.41,62.927,260.379,69.342z"/>
	</g>
</g>
<g>
	<g>
		<path d="M100.997,250.191c-5.442-0.724-19.158-3.754-28.951-16.239c-6.959-8.877-8.628-18.505-9.004-23.453
			c-0.319-4.18-3.803-7.41-7.995-7.41s-7.677,3.229-7.994,7.41c-0.376,4.949-2.046,14.577-9.003,23.452
			c-9.794,12.488-23.509,15.517-28.952,16.24c-3.984,0.53-6.961,3.927-6.961,7.947c0,4.02,2.977,7.417,6.962,7.947
			c5.443,0.724,19.158,3.753,28.951,16.239c6.958,8.877,8.628,18.505,9.004,23.453c0.318,4.179,3.802,7.41,7.994,7.41
			s7.677-3.229,7.994-7.41c0.376-4.949,2.046-14.576,9.003-23.452c9.794-12.488,23.509-15.517,28.952-16.24
			c3.985-0.529,6.962-3.927,6.962-7.947C107.959,254.118,104.982,250.721,100.997,250.191z M59.427,272.432
			c-1.667,2.127-3.119,4.278-4.38,6.421c-1.262-2.144-2.713-4.295-4.381-6.422c-5.031-6.415-10.793-11.007-16.419-14.293
			c5.628-3.286,11.389-7.879,16.42-14.294c1.667-2.127,3.119-4.277,4.38-6.421c1.261,2.144,2.713,4.294,4.38,6.421
			c0,0,0,0.001,0.001,0.001c5.031,6.416,10.793,11.008,16.419,14.293C70.219,261.424,64.458,266.017,59.427,272.432z"/>
	</g>
</g>
<g>
</g>
<g>
</g>
<g>
</g>
<g>
</g>
<g>
</g>
<g>
</g>
<g>
</g>
<g>
</g>
<g>
</g>
<g>
</g>
<g>
</g>
<g>
</g>
<g>
</g>
<g>
</g>
<g>
</g>
</svg>
