<?xml version="1.0" encoding="iso-8859-1"?>
<!-- Generator: Adobe Illustrator 19.1.0, SVG Export Plug-In . SVG Version: 6.00 Build 0)  -->
<svg version="1.1" id="Capa_1" xmlns="http://www.w3.org/2000/svg" xmlns:xlink="http://www.w3.org/1999/xlink" x="0px" y="0px"
	 viewBox="0 0 489.3 489.3" style="enable-background:new 0 0 489.3 489.3;" xml:space="preserve">
<g>
	<g>
		<path d="M89.3,195.25c-27.6,0-50,22.4-50,50s22.4,50,50,50s50-22.4,50-50S116.9,195.25,89.3,195.25z M103.7,264.95
			c-2.2,2.7-5,4.4-8.3,5.3c-1.4,0.4-2.1,1.2-2,2.7s0,3,0,4.4c0,1.3-0.7,2-2,2.1c-1.6,0-3.2,0-4.8,0c-1.4,0-2-0.8-2.1-2.2
			c0-1.1,0-2.2,0-3.2c0-2.4-0.1-2.5-2.4-2.8c-2.9-0.5-5.8-1.1-8.5-2.4c-2.1-1-2.3-1.5-1.7-3.8c0.4-1.6,0.9-3.3,1.4-4.9
			c0.6-1.9,1.1-2.1,2.8-1.2c3,1.5,6.1,2.4,9.4,2.8c2.1,0.3,4.2,0,6.2-0.8c3.7-1.6,4.3-5.9,1.1-8.4c-1.1-0.9-2.3-1.5-3.5-2.1
			c-3.2-1.4-6.6-2.5-9.6-4.3c-4.9-3-8.1-7-7.7-13c0.4-6.8,4.3-11,10.5-13.3c2.6-0.9,2.6-0.9,2.6-3.6c0-0.9,0-1.8,0-2.7
			c0.1-2,0.4-2.4,2.4-2.4c0.6,0,1.2,0,1.9,0c4.3,0,4.3,0,4.3,4.3c0,3,0,3.1,3,3.5c2.3,0.4,4.5,1,6.7,2c1.2,0.5,1.6,1.3,1.3,2.6
			c-0.5,1.9-1,3.7-1.6,5.6c-0.6,1.7-1.1,2-2.8,1.2c-3.4-1.6-6.9-2.3-10.6-2.1c-1,0.1-1.9,0.2-2.8,0.6c-3.2,1.4-3.7,4.9-1,7.1
			c1.4,1.1,3,1.9,4.6,2.6c2.8,1.2,5.7,2.3,8.4,3.8C107.4,246.85,109.7,257.65,103.7,264.95z"/>
		<path d="M456.2,91.25H343.6c-18.2,0-33,14.9-33,33v240.8c0,18.2,14.9,33,33,33h112.7c18.2,0,33-14.9,33-33v-67.2v-145.4v-28.2
			C489.2,106.05,474.4,91.25,456.2,91.25z M414.1,384.15h-31.8c-4.7,0-8.5-3.8-8.5-8.5s3.8-8.5,8.5-8.5h31.8c4.7,0,8.5,3.8,8.5,8.5
			S418.8,384.15,414.1,384.15z M471.7,146.15v6.3v145.2v16.8v30.2c0,4.7-3.8,8.5-8.5,8.5H336.5c-4.7,0-8.5-3.8-8.5-8.5v-200
			c0-4.7,3.8-8.5,8.5-8.5h126.7c4.7,0,8.5,3.8,8.5,8.5L471.7,146.15L471.7,146.15z"/>
		<path d="M399.9,195.25c-27.6,0-50,22.4-50,50s22.4,50,50,50s50-22.4,50-50S427.5,195.25,399.9,195.25z M414.3,264.95
			c-2.2,2.7-5,4.4-8.3,5.3c-1.4,0.4-2.1,1.2-2,2.7s0,3,0,4.4c0,1.3-0.7,2-2,2.1c-1.6,0-3.2,0-4.8,0c-1.4,0-2-0.8-2.1-2.2
			c0-1.1,0-2.2,0-3.2c0-2.4-0.1-2.5-2.4-2.8c-2.9-0.5-5.8-1.1-8.5-2.4c-2.1-1-2.3-1.5-1.7-3.8c0.4-1.6,0.9-3.3,1.4-4.9
			c0.6-1.9,1.1-2.1,2.8-1.2c3,1.5,6.1,2.4,9.4,2.8c2.1,0.3,4.2,0,6.2-0.8c3.7-1.6,4.3-5.9,1.1-8.4c-1.1-0.9-2.3-1.5-3.5-2.1
			c-3.2-1.4-6.6-2.5-9.6-4.3c-4.9-3-8.1-7-7.7-13c0.4-6.8,4.3-11,10.5-13.3c2.6-0.9,2.6-0.9,2.6-3.6c0-0.9,0-1.8,0-2.7
			c0.1-2,0.4-2.4,2.4-2.4c0.6,0,1.2,0,1.9,0c4.3,0,4.3,0,4.3,4.3c0,3,0,3.1,3,3.5c2.3,0.4,4.5,1,6.7,2c1.2,0.5,1.6,1.3,1.3,2.6
			c-0.5,1.9-1,3.7-1.6,5.6c-0.6,1.7-1.1,2-2.8,1.2c-3.4-1.6-6.9-2.3-10.6-2.1c-1,0.1-1.9,0.2-2.8,0.6c-3.2,1.4-3.7,4.9-1,7.1
			c1.4,1.1,3,1.9,4.6,2.6c2.8,1.2,5.7,2.3,8.4,3.8C418,246.85,420.3,257.65,414.3,264.95z"/>
		<path d="M290.3,221.85l-26.4-16.4c-1.3-0.8-2.9,0.1-2.9,1.6v8.1h-60.9c-1.4,0-2.5,1.1-2.5,2.5v11.7c0,1.4,1.1,2.5,2.5,2.5H261v8.1
			c0,1.5,1.6,2.4,2.9,1.6l26.4-16.4C291.5,224.35,291.5,222.65,290.3,221.85z"/>
		<path d="M288.6,258.65h-60.9v-8.1c0-1.5-1.6-2.4-2.9-1.6l-26.4,16.4c-1.2,0.7-1.2,2.5,0,3.2l26.4,16.4c1.3,0.8,2.9-0.1,2.9-1.6
			v-8.1h60.9c1.4,0,2.5-1.1,2.5-2.5v-11.7C291.2,259.75,290,258.65,288.6,258.65z"/>
		<path d="M145.6,91.25H33c-18.2,0-33,14.9-33,33v240.8c0,18.2,14.9,33,33,33h112.6c18.2,0,33-14.9,33-33v-67.2v-145.4v-28.2
			C178.6,106.05,163.8,91.25,145.6,91.25z M103.5,384.15H71.7c-4.7,0-8.5-3.8-8.5-8.5s3.8-8.5,8.5-8.5h31.8c4.7,0,8.5,3.8,8.5,8.5
			S108.2,384.15,103.5,384.15z M161.1,146.15v6.3v145.2v16.8v30.2c0,4.7-3.8,8.5-8.5,8.5H25.9c-4.7,0-8.5-3.8-8.5-8.5v-200
			c0-4.7,3.8-8.5,8.5-8.5h126.7c4.7,0,8.5,3.8,8.5,8.5V146.15z"/>
	</g>
</g>
<g>
</g>
<g>
</g>
<g>
</g>
<g>
</g>
<g>
</g>
<g>
</g>
<g>
</g>
<g>
</g>
<g>
</g>
<g>
</g>
<g>
</g>
<g>
</g>
<g>
</g>
<g>
</g>
<g>
</g>
</svg>
