<?xml version="1.0" encoding="iso-8859-1"?>
<!-- Generator: Adobe Illustrator 19.0.0, SVG Export Plug-In . SVG Version: 6.00 Build 0)  -->
<svg version="1.1" id="Capa_1" xmlns="http://www.w3.org/2000/svg" xmlns:xlink="http://www.w3.org/1999/xlink" x="0px" y="0px"
	 viewBox="0 0 490.3 490.3" style="enable-background:new 0 0 490.3 490.3;" xml:space="preserve">
<g>
	<path d="M199.821,96.9c-10.2,0-18.4-8.3-18.4-18.4s8.3-18.4,18.4-18.4c10.2,0,18.4,8.3,18.4,18.4S210.021,96.9,199.821,96.9z
		 M199.821,108.7c36.8,0,66.7,29.9,66.7,66.7c0,20.3-9.1,38.4-23.4,50.7c-6.5-3.2-13.8-5-21.9-5c-1.7,0-3.5,0.1-4.9,0.2
		c-3.9,0.3-17.3,2.5-27.2,16.9c-0.6,0.9-1.2,1.8-1.7,2.7c-30.9-5.8-54.3-32.9-54.3-65.5C133.121,138.6,162.921,108.7,199.821,108.7z
		 M176.921,189.9c0.3,5.7,2.1,10.2,5.6,13.3c3.7,3.4,8.4,5.4,13.9,6v7.4c0,1,0.8,1.8,1.8,1.8h6.6c1,0,1.8-0.8,1.8-1.8V209
		c4.5-0.8,8.1-2.6,10.9-5.3c3.3-3.2,5-7.4,5-12.7c0-5.5-1.6-9.8-4.9-12.7c-3.3-3-8.4-5.9-15.4-8.9c-3-1.3-5.1-2.6-6.2-3.9
		c-1.1-1.3-1.7-3-1.7-5.1s0.5-3.7,1.5-5.1c1-1.3,2.6-2,4.8-2c2.1,0,3.8,0.8,5.1,2.4c1,1.3,1.6,3.1,1.8,5.5c0.1,1.1,1.1,1.9,2.1,1.8
		l10.8-0.2c1.2,0,2.2-1,2.1-2.2c-0.3-4.7-1.8-8.7-4.6-11.9c-2.9-3.3-6.7-5.5-11.4-6.4v-8.1c0-1-0.8-1.8-1.8-1.8h-6.6
		c-1,0-1.8,0.8-1.8,1.8v7.9c-5,0.7-9.1,2.6-12.2,5.6c-3.4,3.3-5.2,7.5-5.2,12.6c0,5.6,1.6,9.9,4.9,12.8c3.2,2.9,8.4,5.8,15.5,8.6
		c2.9,1.3,5,2.6,6.1,3.9c1.1,1.3,1.7,3.2,1.7,5.5c0,2.1-0.6,3.7-1.7,5c-1.1,1.3-2.8,1.9-4.9,1.9c-2.6,0-4.7-0.8-6.3-2.5
		c-1.3-1.3-2.1-3.4-2.4-6.2c-0.1-1.1-1.1-1.9-2.1-1.9l-10.8,0.2C177.821,187.7,176.921,188.7,176.921,189.9z M386.721,273
		c-5.5-4.3-63-68.1-78.4-77.1V30.4c0-16.8-13.6-30.4-30.4-30.4h-156.2c-16.8,0-30.4,13.6-30.4,30.4v289.7
		c0,16.8,13.6,30.4,30.4,30.4h50.1h17.9l-2.8-23.8c-0.9-0.8-1.5-1.3-2.4-2.1h-10h-20c0.9-3.7,1.2-7.6,0.7-11.6
		c-1.6-12.6-11.2-23.1-23.5-25.9c-5.1-1.2-9.9-1-14.4,0.1V61.5c5.1,1,10.7,0.7,16.4-1.5c6.1-2.3,11.2-6.7,14.8-12.1
		c5.1-7.8,5.9-15.3,4.7-22.1h93.3c-1.2,6.7-0.4,14,4.5,21.8c3.5,5.6,8.7,10,14.8,12.3c5.8,2.2,11.4,2.5,16.6,1.5v220.1l0,0v63.2
		c-10.6-7.8-22.5-32.2-22.5-32.2s-5.8-65-38.7-65c-0.9,0-1.7,0-2.6,0.1c0,0-24.9,2.1-4.3,73.4l9.2,79.1c0,0,10.3,43,38.7,72.7v8.9
		c0,4.7,3.8,8.6,8.6,8.6h92.6c4.4,0,8-3.3,8.5-7.6c3.3-30.5,15.9-142.9,23.4-162.2c1.4-3.7,2.7-7.4,3.2-11.3
		C399.721,299.2,399.421,282.8,386.721,273z"/>
</g>
<g>
</g>
<g>
</g>
<g>
</g>
<g>
</g>
<g>
</g>
<g>
</g>
<g>
</g>
<g>
</g>
<g>
</g>
<g>
</g>
<g>
</g>
<g>
</g>
<g>
</g>
<g>
</g>
<g>
</g>
</svg>
