<?xml version="1.0" encoding="iso-8859-1"?>
<!-- Generator: Adobe Illustrator 19.0.0, SVG Export Plug-In . SVG Version: 6.00 Build 0)  -->
<svg version="1.1" id="Layer_1" xmlns="http://www.w3.org/2000/svg" xmlns:xlink="http://www.w3.org/1999/xlink" x="0px" y="0px"
	 viewBox="0 0 512 512" style="enable-background:new 0 0 512 512;" xml:space="preserve">
<g transform="translate(1 1)">
	<g>
		<polygon style="fill:#1CD759;" points="157.897,502.172 104.931,502.172 96.103,466.862 166.724,466.862 		"/>
		<polygon style="fill:#1CD759;" points="405.069,502.172 352.103,502.172 343.276,466.862 413.897,466.862 		"/>
	</g>
	<path style="fill:#FD9808;" d="M449.207,466.862H325.621c-19.421,0-35.31-15.89-35.31-35.31V43.138
		c0-19.421,15.89-35.31,35.31-35.31h123.586c19.421,0,35.31,15.89,35.31,35.31v388.414
		C484.517,450.972,468.628,466.862,449.207,466.862"/>
	<path style="fill:#FFFFFF;" d="M184.379,466.862H60.793c-19.421,0-35.31-15.89-35.31-35.31V43.138
		c0-19.421,15.89-35.31,35.31-35.31h123.586c19.421,0,35.31,15.89,35.31,35.31v388.414
		C219.69,450.972,203.8,466.862,184.379,466.862"/>
	<path style="fill:#FFDD09;" d="M422.724,466.862H87.276c-19.421,0-35.31-15.89-35.31-35.31V43.138
		c0-19.421,15.89-35.31,35.31-35.31h335.448c19.421,0,35.31,15.89,35.31,35.31v388.414
		C458.034,450.972,442.145,466.862,422.724,466.862"/>
	<path style="fill:#15A143;" d="M431.552,237.345c0,97.103-79.448,176.552-176.552,176.552S78.448,334.448,78.448,237.345
		S157.897,60.793,255,60.793S431.552,140.241,431.552,237.345"/>
	<path style="fill:#1CD759;" d="M405.069,241.759c0,95.338-73.269,172.138-163.31,172.138s-163.31-76.8-163.31-172.138
		s73.269-172.138,163.31-172.138S405.069,146.421,405.069,241.759"/>
	<path style="fill:#54C9FD;" d="M245.29,185.262c-19.421,6.179-34.428,22.069-34.428,43.255c0,23.834,20.303,44.138,44.138,44.138
		c21.186,0,36.193-15.007,43.255-34.428c3.531-8.828,27.366-80.331,27.366-80.331S253.234,182.614,245.29,185.262"/>
	<path d="M449.207,475.69H60.793c-24.717,0-44.138-19.421-44.138-44.138V43.138C16.655,18.421,36.076-1,60.793-1h388.414
		c24.717,0,44.138,19.421,44.138,44.138v388.414C493.345,456.269,473.924,475.69,449.207,475.69z M60.793,16.655
		c-15.007,0-26.483,11.476-26.483,26.483v388.414c0,15.007,11.476,26.483,26.483,26.483h388.414
		c15.007,0,26.483-11.476,26.483-26.483V43.138c0-15.007-11.476-26.483-26.483-26.483H60.793z"/>
	<path d="M255,422.724c-102.4,0-185.379-82.979-185.379-185.379S152.6,51.966,255,51.966s185.379,82.979,185.379,185.379
		S357.4,422.724,255,422.724z M255,69.621c-92.69,0-167.724,75.034-167.724,167.724S162.31,405.069,255,405.069
		s167.724-75.034,167.724-167.724S347.69,69.621,255,69.621z"/>
	<path d="M157.897,511h-52.966c-4.414,0-7.945-2.648-8.828-7.062l-8.828-35.31c-0.883-2.648,0-5.297,1.766-7.945
		c1.766-1.766,4.414-2.648,7.062-2.648h70.621c2.648,0,5.297,0.883,7.062,3.531c1.766,1.766,2.648,5.297,1.766,7.945l-8.828,35.31
		C165.841,508.352,162.31,511,157.897,511z M111.993,493.345h38.841l4.414-17.655h-47.669L111.993,493.345z"/>
	<path d="M405.069,511h-52.966c-4.414,0-7.945-2.648-8.828-7.062l-8.828-35.31c-0.883-2.648,0-5.297,1.766-7.945
		c1.766-1.766,4.414-3.531,7.062-3.531h70.621c2.648,0,5.297,0.883,7.062,3.531c1.766,1.766,2.648,5.297,1.766,7.945l-8.828,35.31
		C413.014,508.352,409.483,511,405.069,511z M359.165,493.345h38.841l4.414-17.655h-47.669L359.165,493.345z"/>
	<path d="M255,122.586c-5.297,0-8.828-3.531-8.828-8.828V96.103c0-5.297,3.531-8.828,8.828-8.828c5.297,0,8.828,3.531,8.828,8.828
		v17.655C263.828,119.055,260.297,122.586,255,122.586z"/>
	<path d="M255,387.414c-5.297,0-8.828-3.531-8.828-8.828v-17.655c0-5.297,3.531-8.828,8.828-8.828c5.297,0,8.828,3.531,8.828,8.828
		v17.655C263.828,383.883,260.297,387.414,255,387.414z"/>
	<path d="M131.414,246.172h-17.655c-5.297,0-8.828-3.531-8.828-8.828s3.531-8.828,8.828-8.828h17.655
		c5.297,0,8.828,3.531,8.828,8.828S136.71,246.172,131.414,246.172z"/>
	<path d="M396.241,246.172h-17.655c-5.297,0-8.828-3.531-8.828-8.828s3.531-8.828,8.828-8.828h17.655
		c5.297,0,8.828,3.531,8.828,8.828S401.538,246.172,396.241,246.172z"/>
	<path d="M255,281.483c-29.131,0-52.966-23.835-52.966-52.966c0-22.952,15.89-43.255,39.724-51.2
		c8.828-2.648,80.331-27.366,80.331-27.366c3.531-0.883,7.062,0,8.828,1.766c1.766,1.766,3.531,6.179,1.766,8.828
		c-0.883,2.648-24.717,72.386-27.366,81.214C296.49,266.476,277.952,281.483,255,281.483z M311.497,172.021
		c-22.069,7.945-58.262,20.303-63.559,22.069l0,0c-17.655,5.297-28.248,19.421-28.248,34.428c0,19.421,15.89,35.31,35.31,35.31
		c15.007,0,28.248-10.593,34.428-28.248C292.076,229.4,304.434,194.09,311.497,172.021z M245.29,185.262L245.29,185.262
		L245.29,185.262z"/>
</g>
<g>
</g>
<g>
</g>
<g>
</g>
<g>
</g>
<g>
</g>
<g>
</g>
<g>
</g>
<g>
</g>
<g>
</g>
<g>
</g>
<g>
</g>
<g>
</g>
<g>
</g>
<g>
</g>
<g>
</g>
</svg>
